# xmcd
#
# Track frame offsets: 
#        150
#        16882
#        34414
#        42465
#        59859
#        84777
#        98704
#        112926
#        131433
#
# Disc length: 2039 seconds
#
# Revision: 0
# Processed by: cddbd v1.5.2PL0 Copyright (c) Steve Scherf et al.
# Submitted via: ExactAudioCopy v1.3
#
DISCID=6f07f509
DTITLE=Black Bottle Riot - Soul In Exile
DYEAR=2013
DGENRE=Blues Rock
TTITLE0=Soul In Exile
TTITLE1=We'll Be Rolling
TTITLE2=Knock Yourself Out
TTITLE3=Backseat Boogie
TTITLE4=Trying Too Hard
TTITLE5=The Rocky Road
TTITLE6=Hunt You Down
TTITLE7=Tried And True
TTITLE8=Away From The Shore
EXTD=
EXTT0=
EXTT1=
EXTT2=
EXTT3=
EXTT4=
EXTT5=
EXTT6=
EXTT7=
EXTT8=
PLAYORDER=
